<?xml version="1.0" standalone="no"?>
<!DOCTYPE svg PUBLIC "-//W3C//DTD SVG 20010904//EN"
 "http://www.w3.org/TR/2001/REC-SVG-20010904/DTD/svg10.dtd">
<svg version="1.0" xmlns="http://www.w3.org/2000/svg"
 width="240.000000pt" height="29.000000pt" viewBox="0 0 240.000000 29.000000"
 preserveAspectRatio="xMidYMid meet">

<g transform="translate(0.000000,29.000000) scale(0.100000,-0.100000)"
fill="#000000" stroke="none">
<path d="M0 167 c0 -116 1 -125 23 -145 21 -20 34 -22 138 -22 108 0 117 2
137 23 20 21 22 34 22 145 l0 122 -30 0 -30 0 0 -115 0 -115 -100 0 -100 0 0
115 0 115 -30 0 -30 0 0 -123z"/>
<path d="M412 267 c-20 -21 -22 -34 -22 -145 l0 -122 30 0 c28 0 29 1 32 58
l3 57 115 3 c138 3 150 10 150 87 0 79 -11 85 -162 85 -117 0 -126 -1 -146
-23z m248 -67 l0 -31 -102 3 -103 3 -3 28 -3 27 105 0 106 0 0 -30z"/>
<path d="M807 272 c-11 -12 -17 -36 -17 -69 0 -74 13 -82 145 -85 l110 -3 3
-27 3 -28 -130 0 -131 0 0 -30 0 -30 138 0 c163 0 172 4 172 87 0 75 -13 83
-143 83 l-107 0 0 30 0 30 125 0 125 0 0 30 0 30 -138 0 c-122 0 -141 -2 -155
-18z"/>
<path d="M1180 145 l0 -145 30 0 30 0 0 145 0 145 -30 0 -30 0 0 -145z"/>
<path d="M1320 167 c0 -116 1 -125 23 -145 21 -20 34 -22 125 -22 l102 0 0 30
0 30 -95 0 -95 0 0 115 0 115 -30 0 -30 0 0 -123z"/>
<path d="M1647 272 c-14 -15 -17 -40 -17 -129 0 -136 5 -143 103 -143 l67 0 0
30 c0 30 -1 30 -55 30 l-55 0 0 85 0 85 55 0 c54 0 55 0 55 30 l0 30 -68 0
c-54 0 -72 -4 -85 -18z"/>
<path d="M1852 263 c3 -26 7 -28 56 -31 l52 -3 0 -84 0 -84 -52 -3 c-49 -3
-53 -5 -56 -31 l-3 -27 69 0 c97 0 102 7 102 147 0 136 -5 143 -104 143 l-67
0 3 -27z"/>
<path d="M2092 267 c-20 -21 -22 -34 -22 -145 l0 -122 30 0 30 0 0 90 c0 50 4
90 9 90 5 0 56 -40 113 -89 l103 -90 22 21 c21 20 23 30 23 145 l0 123 -30 0
-30 0 0 -90 c0 -49 -3 -90 -7 -90 -5 0 -55 41 -111 90 -57 50 -105 90 -106 90
-1 0 -12 -10 -24 -23z"/>
</g>
</svg>
